<svg width="1024" height="1024" viewBox="0 0 1024 1024" xmlns="http://www.w3.org/2000/svg">
<defs>
<radialGradient id="field" cx="0.5" cy="0.18" r="1.1">
<stop offset="0" stop-color="#ffffff"/><stop offset="0.45" stop-color="#fdf7f2"/><stop offset="1" stop-color="#f3e6da"/>
</radialGradient>
<linearGradient id="gf" x1="0" y1="0" x2="0" y2="1">
<stop offset="0" stop-color="#e66b56" stop-opacity="0.55"/>
<stop offset="0.35" stop-color="#e66b56" stop-opacity="0.38"/>
<stop offset="0.75" stop-color="#e66b56" stop-opacity="0.30"/>
<stop offset="1" stop-color="#e66b56" stop-opacity="0.45"/>
</linearGradient>
<linearGradient id="rim" x1="0" y1="0" x2="0.6" y2="1">
<stop offset="0" stop-color="#ffffff" stop-opacity="0.95"/>
<stop offset="0.35" stop-color="#ffffff" stop-opacity="0.30"/>
<stop offset="0.8" stop-color="#ffffff" stop-opacity="0.08"/>
<stop offset="1" stop-color="#ffffff" stop-opacity="0.45"/>
</linearGradient>
<linearGradient id="sw" x1="0" y1="0" x2="0.25" y2="1">
<stop offset="0" stop-color="#ffffff" stop-opacity="0.5"/><stop offset="1" stop-color="#ffffff" stop-opacity="0"/>
</linearGradient>
<filter id="soft" x="-40%" y="-40%" width="180%" height="180%"><feGaussianBlur stdDeviation="18"/></filter>
<filter id="big" x="-60%" y="-60%" width="220%" height="220%"><feGaussianBlur stdDeviation="46"/></filter>
<filter id="drop" x="-40%" y="-40%" width="180%" height="180%"><feGaussianBlur stdDeviation="26"/></filter>
<path id="mark" d="M 384,214 L 640,214 A 54 54 0 0 1 694,268 L 694,828 L 512,698 L 330,828 L 330,268 A 54 54 0 0 1 384,214 Z"/>
<clipPath id="mc"><use href="#mark"/></clipPath>
</defs>
<rect width="1024" height="1024" fill="url(#field)"/>
<ellipse cx="260" cy="120" rx="520" ry="320" fill="#ffffff" opacity="0.5" filter="url(#big)"/>
<ellipse cx="860" cy="980" rx="480" ry="300" fill="#e66b56" opacity="0.10" filter="url(#big)"/>
<use href="#mark" transform="translate(0 26)" fill="#cf5340" opacity="0.30" filter="url(#drop)"/>
<use href="#mark" fill="url(#gf)"/>
<g clip-path="url(#mc)">
<use href="#mark" transform="translate(0 -14)" fill="none" stroke="#cf5340" stroke-width="30" opacity="0.30" filter="url(#soft)"/>
<use href="#mark" transform="translate(-10 10)" fill="none" stroke="#ffffff" stroke-width="16" opacity="0.35" filter="url(#soft)"/>
<path d="M 300,190 L 720,190 L 520,470 L 300,470 Z" fill="url(#sw)" filter="url(#soft)"/>
<path d="M 384,214 L 640,214 A 54 54 0 0 1 694,268" fill="none" stroke="#ffffff" stroke-width="10" stroke-linecap="round" opacity="0.9" filter="url(#soft)"/>
<path d="M 512,698 L 400,780 L 624,780 Z" fill="#ffffff" opacity="0.20" filter="url(#big)"/>
</g>
<use href="#mark" fill="none" stroke="url(#rim)" stroke-width="5"/>
<circle cx="512" cy="400" r="66" fill="#cf5340" opacity="0.25" transform="translate(0 12)" filter="url(#soft)"/>
<path d="M 396,606 A 122 122 0 0 1 628,606" fill="none" stroke="#cf5340" stroke-width="52" stroke-linecap="round" opacity="0.25" transform="translate(0 12)" filter="url(#soft)"/>
<circle cx="512" cy="400" r="66" fill="#fdf7f2"/>
<path d="M 396,606 A 122 122 0 0 1 628,606" fill="none" stroke="#fdf7f2" stroke-width="52" stroke-linecap="round"/>
</svg>